<svg width="512" height="512" viewBox="0 0 512 512" fill="none" xmlns="http://www.w3.org/2000/svg">
  <rect width="512" height="512" rx="120" fill="#86C5DA"/>
  <path d="M256 120C173.452 120 120 173.452 120 256C120 338.548 173.452 392 256 392C338.548 392 392 338.548 392 256C392 173.452 338.548 120 256 120ZM256 352C195.738 352 160 316.262 160 256C160 195.738 195.738 160 256 160C316.262 160 352 195.738 352 256C352 316.262 316.262 352 256 352Z" fill="#F7F2E9"/>
  <path d="M256 192C213.49 192 192 213.49 192 256C192 298.51 213.49 320 256 320C298.51 320 320 298.51 320 256C320 213.49 298.51 192 256 192ZM256 280C235.67 280 232 266.33 232 256C232 235.67 245.67 232 256 232C276.33 232 280 245.67 280 256C280 276.33 266.33 280 256 280Z" fill="#F7F2E9"/>
</svg>
